<svg width="18" height="24" viewBox="0 0 18 24" fill="none" xmlns="http://www.w3.org/2000/svg">
<path d="M6.89961 0.799988C6.46515 0.79976 6.04132 0.934287 5.68652 1.18503C5.33172 1.43577 5.06343 1.79038 4.91861 2.19999H2.69961C2.14265 2.19999 1.60851 2.42124 1.21468 2.81506C0.820858 3.20889 0.599609 3.74303 0.599609 4.29999V21.1C0.599609 21.6569 0.820858 22.1911 1.21468 22.5849C1.60851 22.9787 2.14265 23.2 2.69961 23.2H15.2996C15.8566 23.2 16.3907 22.9787 16.7845 22.5849C17.1784 22.1911 17.3996 21.6569 17.3996 21.1V4.29999C17.3996 3.74303 17.1784 3.20889 16.7845 2.81506C16.3907 2.42124 15.8566 2.19999 15.2996 2.19999H13.0806C12.9358 1.79038 12.6675 1.43577 12.3127 1.18503C11.9579 0.934287 11.5341 0.79976 11.0996 0.799988H6.89961ZM6.19961 2.89999C6.19961 2.71434 6.27336 2.53629 6.40463 2.40501C6.53591 2.27374 6.71396 2.19999 6.89961 2.19999H11.0996C11.2853 2.19999 11.4633 2.27374 11.5946 2.40501C11.7259 2.53629 11.7996 2.71434 11.7996 2.89999C11.7996 3.08564 11.7259 3.26369 11.5946 3.39496C11.4633 3.52624 11.2853 3.59999 11.0996 3.59999H6.89961C6.71396 3.59999 6.53591 3.52624 6.40463 3.39496C6.27336 3.26369 6.19961 3.08564 6.19961 2.89999ZM8.09521 8.99559L5.64521 11.4456C5.51768 11.573 5.34593 11.6462 5.16572 11.6502C4.98552 11.6541 4.81075 11.5883 4.67781 11.4666L3.62781 10.5076C3.55646 10.4466 3.4981 10.3719 3.45621 10.2879C3.41432 10.2039 3.38975 10.1123 3.38396 10.0187C3.37817 9.92498 3.39128 9.83108 3.42251 9.74257C3.45373 9.65406 3.50245 9.57273 3.56574 9.50342C3.62904 9.43411 3.70563 9.37824 3.79096 9.33913C3.87628 9.30003 3.9686 9.27848 4.06242 9.27577C4.15625 9.27306 4.24966 9.28925 4.3371 9.32337C4.42454 9.35749 4.50422 9.40885 4.57141 9.47439L5.12721 9.98119L7.10401 8.00439C7.16909 7.93931 7.24636 7.88768 7.33139 7.85246C7.41643 7.81723 7.50757 7.7991 7.59961 7.7991C7.69165 7.7991 7.78279 7.81723 7.86783 7.85246C7.95286 7.88768 8.03013 7.93931 8.09521 8.00439C8.16029 8.06947 8.21192 8.14674 8.24714 8.23177C8.28237 8.31681 8.30049 8.40795 8.30049 8.49999C8.30049 8.59203 8.28237 8.68317 8.24714 8.76821C8.21192 8.85324 8.16029 8.93051 8.09521 8.99559ZM8.09521 15.0044C8.1604 15.0694 8.21212 15.1467 8.24741 15.2317C8.2827 15.3167 8.30086 15.4079 8.30086 15.5C8.30086 15.5921 8.2827 15.6832 8.24741 15.7683C8.21212 15.8533 8.1604 15.9306 8.09521 15.9956L5.64521 18.4456C5.51768 18.573 5.34593 18.6462 5.16572 18.6502C4.98552 18.6541 4.81075 18.5883 4.67781 18.4666L3.62781 17.5076C3.49776 17.3807 3.42213 17.2083 3.41689 17.0267C3.41165 16.8451 3.47721 16.6686 3.59972 16.5344C3.72223 16.4003 3.89209 16.319 4.07341 16.3078C4.25474 16.2966 4.43331 16.3564 4.57141 16.4744L5.12721 16.9826L7.10401 15.0044C7.16903 14.9392 7.24628 14.8875 7.33132 14.8522C7.41637 14.8169 7.50754 14.7987 7.59961 14.7987C7.69168 14.7987 7.78285 14.8169 7.8679 14.8522C7.95294 14.8875 8.03019 14.9392 8.09521 15.0044ZM10.3996 16.2H13.8996C14.0853 16.2 14.2633 16.2737 14.3946 16.405C14.5259 16.5363 14.5996 16.7143 14.5996 16.9C14.5996 17.0856 14.5259 17.2637 14.3946 17.395C14.2633 17.5262 14.0853 17.6 13.8996 17.6H10.3996C10.214 17.6 10.0359 17.5262 9.90463 17.395C9.77336 17.2637 9.69961 17.0856 9.69961 16.9C9.69961 16.7143 9.77336 16.5363 9.90463 16.405C10.0359 16.2737 10.214 16.2 10.3996 16.2ZM9.69961 9.89999C9.69961 9.71434 9.77336 9.53629 9.90463 9.40501C10.0359 9.27374 10.214 9.19999 10.3996 9.19999H13.8996C14.0853 9.19999 14.2633 9.27374 14.3946 9.40501C14.5259 9.53629 14.5996 9.71434 14.5996 9.89999C14.5996 10.0856 14.5259 10.2637 14.3946 10.395C14.2633 10.5262 14.0853 10.6 13.8996 10.6H10.3996C10.214 10.6 10.0359 10.5262 9.90463 10.395C9.77336 10.2637 9.69961 10.0856 9.69961 9.89999Z" fill="#B3BEC2"/>
</svg>
